# xmcd
#
# Track frame offsets: 
#        150
#        16880
#        34160
#        51880
#        67817
#        84532
#        101475
#        119395
#        136407
#        153250
#        171462
#        189980
#        206460
#        222950
#        239132
#        256115
#        273270
#        286677
#        303390
#        320555
#
# Disc length: 4521 seconds
#
# Revision: 0
# Processed by: cddbd v1.5.2PL0 Copyright (c) Steve Scherf et al.
# Submitted via: ExactAudioCopy v0.95a5
#
DISCID=1911a714
DTITLE=Various Artist - Taneèní liga 23
DYEAR=1998
DGENRE=Dance
TTITLE0=Vengaboys - We Like To Party! (Airplay) - 1998
TTITLE1=Masterboy - Dancin´ Forever (Radio Edit) - 1998
TTITLE2=2 Unlimited - Never Surrender (Radio Edit) - 1998
TTITLE3=Lovestation - Teardrops (Lovestation Classic 7") - 1998
TTITLE4=French Connection - I Don´t Like Reggae - 1998
TTITLE5=Adrima - Living On A Fantasy - 1998
TTITLE6=Rollercoaster - Keep Da Frequency Clear - 1998
TTITLE7=Alda - Real Good Time (Original Mix) - 1998
TTITLE8=D´Georgia - Phunky Love (Radio Edit) - 1998
TTITLE9=Encore - Le Paradis (Original Mix) - 1998
TTITLE10=DJ Quicksilver - Timerider - 1998
TTITLE11=Sash! - Oliver Momm´s  Sash! Hit Mix - 1998
TTITLE12=Virus - Forever In Love (Radio Club Cut) - 1998
TTITLE13=Starkstorm - Hipnotic Tango (Radio Version) - 1998
TTITLE14=Foundation feat. Deskee - Get Up (September) - 1998
TTITLE15=Celetia - Rewind (Cutfather a Joe Remix) - 1998
TTITLE16=Lutricia McNeal - Someone Loves You Honey (Radio Remix) - 199
TTITLE16=8
TTITLE17=Hypertrophy - Eternal Flames (Sharp Cut) - 1998
TTITLE18=Sunz Of Man - Shining Star (Radio Edit) - 1998
TTITLE19=Tami Davis - How Do I Say I´m Sorry - 1998
EXTD=
EXTT0=
EXTT1=
EXTT2=
EXTT3=
EXTT4=
EXTT5=
EXTT6=
EXTT7=
EXTT8=
EXTT9=
EXTT10=
EXTT11=
EXTT12=
EXTT13=
EXTT14=
EXTT15=
EXTT16=
EXTT17=
EXTT18=
EXTT19=
PLAYORDER=
